# xmcd
# 
# Track frame offsets:
#     150
#     15238
#     26847
#     36932
#     49423
#     65745
#     79312
#     94851
#     108878
#     123469
#     137128
#     152631
#     165813
#     179338
#     190536
#     200885
#     218899
#     234398
#     250152
#     262781
#     275353
#     288528
#     303036
#     318593
# 
# Disc length: 4421
# 
# Revision: 4
# Processed by: cddbd v1.5.2PL0 Copyright (c) Steve Scherf et al.
# Submitted via: fre:ac v1.1beta1pre5
# 
DISCID=4f114318
DTITLE=Various Artist - Down and Out - The Sad Soul of the Black South
DYEAR=1998
DGENRE=Soul
TTITLE0=George Perkins and the Silver Stars - Crying in the streets
TTITLE1=Johnny Copeland - Down on bending knees
TTITLE2=Ede Robin - Dead
TTITLE3=Sam Dees - Lonely for you baby
TTITLE4=Virgil Griffin and Rhythm Kings - Forgotten lover
TTITLE5=O.V. Wright - Everybody knows (the river song)
TTITLE6=Joe Medwick - I cried
TTITLE7=James Kelly Duhon - Heart breaker (child maker)
TTITLE8=Larry Coney - More time (to explain)
TTITLE9=Ella Brown - Love don't love nobody
TTITLE10=Don Varner - He kept on talking
TTITLE11=Billy Brandon - Rainbow road
TTITLE12=Doris Allen - Shell of a woman
TTITLE13=Geater Davies - Why does it hurt so bad?
TTITLE14=Bobby "Blue" Bland - Road of brokenhearted men
TTITLE15=Dicky Williams - In the same motel
TTITLE16=Ella Washington - Sit down and cry
TTITLE17=Bobby "Blue" Bland - That did it
TTITLE18=Betty Lavette - Let me down easy
TTITLE19=O.V. Wright - He's my son (just the same)
TTITLE20=Juke Boy Bonner - Carried to the cleaners and hung out to dry
TTITLE21=Percy Mayfield - Gone astray
TTITLE22=Johnny Copeland - Ghetto child
TTITLE23=Bobby 'Gashead' Boseman - Why do you treat me like a tramp?
EXTD=
EXTT0=
EXTT1=
EXTT2=
EXTT3=
EXTT4=
EXTT5=
EXTT6=
EXTT7=
EXTT8=
EXTT9=
EXTT10=
EXTT11=
EXTT12=
EXTT13=
EXTT14=
EXTT15=
EXTT16=
EXTT17=
EXTT18=
EXTT19=
EXTT20=
EXTT21=
EXTT22=
EXTT23=
PLAYORDER=
